<?xml version="1.0" encoding="utf-8"?>
<!-- Generator: Adobe Illustrator 18.1.1, SVG Export Plug-In . SVG Version: 6.00 Build 0)  -->
<svg version="1.1" id="Layer_1" xmlns="http://www.w3.org/2000/svg" xmlns:xlink="http://www.w3.org/1999/xlink" x="0px" y="0px"
	 viewBox="0 0 512 512" enable-background="new 0 0 512 512" xml:space="preserve">
<g>
	<g>
		<g>
			<path fill="#A257FF" d="M461.7,453.7L420.6,120c-1.1-16-13.7-28.9-28.1-28.9h-52.2c-6.3-39.3-40.6-74.1-85.1-74.1
				c-46.8,0-78.6,34.8-84.4,74.1h-50.2c-14.4,0-27,12.8-28.1,28.9L50.3,453.7c-1.7,22.6,12.5,41.2,31.8,41.2h347.9
				C449.2,494.9,463.4,476.3,461.7,453.7z M255.2,31.9c38,0,59.6,29.4,64.4,59.3H191.8C197.7,61.3,223.1,31.9,255.2,31.9z"/>
		</g>
	</g>
	<g>
		<g>
			<path fill-rule="evenodd" clip-rule="evenodd" fill="#FFFFFF" d="M178.9,123.1c-6.6,0-11.9,5.3-11.9,11.8s5.3,11.8,11.9,11.8
				c6.6,0,11.9-5.3,11.9-11.8S185.5,123.1,178.9,123.1z M332.9,123.1c-6.6,0-11.9,5.3-11.9,11.8s5.3,11.8,11.9,11.8
				c6.6,0,11.9-5.3,11.9-11.8S339.5,123.1,332.9,123.1z"/>
		</g>
	</g>
	<g>
		<g>
			<path fill="#FFFFFF" d="M134.4,365.5c11,0,19.4-4.4,25.7-11.3v-23.1h-28v13.2h13.1v4.5c-2.1,1.7-6.4,3.5-10.7,3.5
				c-9.5,0-16.2-7.3-16.2-16.8c0-9.5,6.7-16.8,16.2-16.8c5.7,0,10.1,3.6,12.3,7.4l12.5-6.5c-4-7.2-11.8-14.1-24.8-14.1
				c-17.3,0-31.4,11.6-31.4,30.1C103,353.9,117.1,365.5,134.4,365.5z M183.8,344.9h7.7l9.8,19.5h17.2l-11.8-21.3
				c5.4-1.9,11.6-7.3,11.6-17.4c0-10.8-7.3-19.3-20.2-19.3h-29.1v58.1h15V344.9z M183.8,319.4h11.8c3.9,0,7.2,2.3,7.2,6.2
				c0,4.1-3.3,6.3-7.2,6.3h-11.8V319.4z M254.5,305.4c-17.8,0-31.1,12.4-31.1,30.1c0,17.7,13.3,30.1,31.1,30.1
				c17.8,0,31-12.4,31-30.1C285.5,317.7,272.3,305.4,254.5,305.4z M254.5,352.2c-9.7,0-15.8-7.4-15.8-16.8c0-9.5,6.2-16.8,15.8-16.8
				c9.6,0,15.8,7.3,15.8,16.8C270.3,344.8,264.1,352.2,254.5,352.2z M332.8,340.4c0,6.9-4.2,11.8-12.2,11.8c-8.2,0-12.3-5-12.3-11.8
				v-34.1h-15.2v34.6c0,14.3,8.8,24.6,27.5,24.6c18.5,0,27.3-10.2,27.3-24.7v-34.5h-15.2V340.4z M387.5,306.3h-29.1v58.1h15v-19.5
				h14.1c13.1,0,20.2-8.8,20.2-19.3C407.7,315.1,400.5,306.3,387.5,306.3z M385.5,331.9h-12.1v-12.5h12.1c4,0,7,2.3,7,6.3
				C392.4,329.6,389.5,331.9,385.5,331.9z M145.4,425.6c0,6.9-4.2,11.8-12.2,11.8c-8.2,0-12.3-5-12.3-11.8v-34.1h-15.2v34.6
				c0,14.3,8.8,24.6,27.5,24.6c18.6,0,27.3-10.2,27.3-24.7v-34.5h-15.2V425.6z M200.1,391.5H171v58.1h15v-19.5h14.1
				c13.1,0,20.2-8.8,20.2-19.3C220.3,400.3,213.1,391.5,200.1,391.5z M198.1,417.1h-12.1v-12.5h12.1c4,0,7,2.3,7,6.3
				C205,414.8,202.1,417.1,198.1,417.1z"/>
		</g>
	</g>
</g>
</svg>
